<svg id="Capa_1" data-name="Capa 1" xmlns="http://www.w3.org/2000/svg" viewBox="0 0 358.61 127.98"><defs><style>.cls-1,.cls-3,.cls-4{fill:#1d1d1b;}.cls-1,.cls-2{stroke:#010101;}.cls-1,.cls-2,.cls-3{stroke-miterlimit:11.34;stroke-width:0.75px;}.cls-2,.cls-5{fill:#e02e25;}.cls-3{stroke:#221f1e;}.cls-5{font-size:15.56px;font-family:Montserrat-Medium, Montserrat;font-weight:500;letter-spacing:0.23em;}</style></defs><g id="g920"><path id="path875" class="cls-1" d="M618,529l-41.8,18.32c-2.26,1.22-2.17,1.07-5-.15L529.9,529.5l-19.8,8.84c-4,1.45-3,4.69-.82,5.73l61.22,25.21c4.1,1.61,3.54,1.43,7.7-.33l57.63-24.88c5.75-1.78,7.24-5,.81-7.2Z" transform="translate(-507.02 -475.9)"/><g id="g911"><path id="path875-7" class="cls-1" d="M618.17,562.12l-41.8,18.31c-2.26,1.23-2.16,1.08-5-.14L530.1,562.61l-19.81,8.84c-4,1.45-3,4.69-.82,5.73l61.23,25.21c4.1,1.61,3.53,1.43,7.69-.33L636,577.18c5.75-1.78,7.25-5,.82-7.2Z" transform="translate(-507.02 -475.9)"/><path id="path877" class="cls-2" d="M600.3,576.81c-1.45-.37-1.91-1.4-.08-2.13l16.94-7.2c1.85-.94,2.78-.22,3.85.25l8.1,3.43c4,1.36,3.09,2.2.09,3.36L616,580.17c-3.8,1.76-4.06,2-7.45.33Z" transform="translate(-507.02 -475.9)"/></g><path id="path913" class="cls-3" d="M510.26,509.36c-4.18-1.32-3.23-4.3-.16-6l58.28-25.05c7-2.71,4.23-2.78,11.37-.08l57.14,23.9c5.31,1.73,4.7,5,.74,6.3l-57.71,25c-6.94,3-4.66,3.13-10.81.65Z" transform="translate(-507.02 -475.9)"/></g><path id="path1204" class="cls-4" d="M679.14,567.41l.05-6.78-19.73,0-.15-22.42-6.79,0,.05,29.07Z" transform="translate(-507.02 -475.9)"/><path id="path1204-7" class="cls-4" d="M803.12,567.31l0-6.79-19.73,0-.15-22.42-6.79.05,0,29.06Z" transform="translate(-507.02 -475.9)"/><path id="path1221" class="cls-4" d="M712.32,514.11l-.09-4,20-.08v-6.55l-26.85-.16.08,29.14,26.52-.08V526l-19.64-.08v-5l12.93-.09v-6.71Z" transform="translate(-507.02 -475.9)"/><path id="path1221-7" class="cls-4" d="M690.43,549l-.08-4,19.54-.08v-6.55l-26.26-.16.08,29.14,25.94-.08v-6.39l-19.22-.08v-5l12.66-.08V549Z" transform="translate(-507.02 -475.9)"/><path id="path1221-71" class="cls-4" d="M752.27,548.93l0-3.9,19.54-.08V538.4l-26.11-.16.08,29.14,25.79-.08v-6.39l-19.11-.08v-5l12.58-.08V549Z" transform="translate(-507.02 -475.9)"/><path id="path1221-0" class="cls-4" d="M781.82,521l-.08,4.75,20,.08v6.7l-26.85.16.08-29.37,26.85.09v6.77l-20-.17-.08,4.37h12.93l.16,6.7Z" transform="translate(-507.02 -475.9)"/><path id="path1250" class="cls-4" d="M723.16,567.42l9.37-.11L741.1,538h-7l-6.25,20.49-6.6-20.37-6.94-.12Z" transform="translate(-507.02 -475.9)"/><path id="path1252" class="cls-4" d="M751,510.07l13,0,0,22.49,6.79.08-.08-29.3h-26.6l.08,29.22,6.88-.08Z" transform="translate(-507.02 -475.9)"/><path id="path1254" class="cls-4" d="M817,518l-10.82-14.58,9.84,0,5.92,8.21,5.94-8.29,9.31.19-10.83,14.65,10.88,14.42-9.53-.1-5.91-8.14-5.9,8.09-9.55,0Z" transform="translate(-507.02 -475.9)"/><path id="path1256" class="cls-4" d="M865.63,503.39l-23.9-.08-4.67,6.63h12.53l-.08,22.59h7L856.3,510l9.17.08" transform="translate(-507.02 -475.9)"/><polygon class="cls-4" points="145.5 27.52 174.34 27.52 174.34 34.07 163.45 34.07 163.45 56.86 156.53 56.86 156.5 33.99 145.5 34.03 145.5 27.52"/><polygon class="cls-4" points="167.57 39.91 187.61 39.91 187.54 27.52 194.16 27.52 194.16 56.75 187.65 56.75 187.65 46.35 174.34 46.35 174.34 56.75 167.57 56.75 167.57 39.91"/><text class="cls-5" transform="translate(145.49 109.95)">A C A D E M Y</text></svg>